<svg width="198" height="64" viewBox="0 0 198 64" fill="none" xmlns="http://www.w3.org/2000/svg">
<g clip-path="url(#clip0_2407_304)">
<path d="M63.948 22.2239H69.863L78.2167 42.2862H71.9649L66.6832 28.9651L63.1935 37.7071H67.3434L69.0007 42.2862H55.5L63.948 22.2239ZM85.1827 26.3868C85.789 26.3868 86.4492 26.4405 87.1094 26.6016V21.6331H92.3372V41.3999C91.1381 41.9371 88.5511 42.5951 85.9641 42.5951C81.2753 42.5951 77.2466 39.9362 77.2466 34.6319C77.2466 29.3276 81.1271 26.4002 85.1827 26.4002V26.3868ZM85.8429 38.2979C86.3279 38.2979 86.7187 38.2039 87.1094 38.0831V30.8048C86.7187 30.6571 86.3279 30.5899 85.8159 30.5899C84.1048 30.5899 82.5149 31.8522 82.5149 34.5111C82.5149 37.1699 84.1317 38.2845 85.8429 38.2845V38.2979ZM101.648 26.3868C106 26.3868 109.705 29.3142 109.705 34.4708C109.705 39.6273 106.013 42.5548 101.648 42.5548C97.2821 42.5548 93.5633 39.6273 93.5633 34.4708C93.5633 29.3142 97.2282 26.3868 101.648 26.3868ZM101.648 38.2173C103.143 38.2173 104.531 37.0222 104.531 34.4708C104.531 31.9193 103.143 30.7242 101.648 30.7242C100.152 30.7242 98.7912 31.9193 98.7912 34.4708C98.7912 37.0222 100.085 38.2173 101.648 38.2173ZM110.958 21.6331H116.213V26.6016C116.846 26.4808 117.506 26.3868 118.166 26.3868C122.249 26.3868 126.035 29.0456 126.035 34.2559C126.035 39.7616 122.006 42.5548 117.237 42.5548C115.189 42.5548 112.575 42.1385 110.958 41.3865V21.6196V21.6331ZM117.358 38.2711C119.163 38.2711 120.807 36.9819 120.807 34.3231C120.807 31.8388 119.19 30.6705 117.439 30.6705C116.954 30.6705 116.563 30.7242 116.213 30.8853V38.0696C116.509 38.1905 116.9 38.2845 117.358 38.2845V38.2711ZM134.955 26.3868C138.889 26.3868 142.5 28.8979 142.5 33.9605C142.5 34.6453 142.473 35.3033 142.379 35.9613H132.583C133.122 37.7339 134.685 38.5665 136.639 38.5665C138.229 38.5665 139.697 38.1771 141.355 37.4653V41.4536C139.819 42.2325 137.986 42.5548 136.1 42.5548C131.115 42.5548 127.234 39.5602 127.234 34.4708C127.234 29.3813 130.751 26.3868 134.955 26.3868ZM137.596 32.6982C137.326 30.9928 136.181 30.3079 135.009 30.3079C133.836 30.3079 132.88 31.0331 132.489 32.6982H137.596Z" fill="#ADADAD"/>
</g>
<defs>
<clipPath id="clip0_2407_304">
<rect width="87" height="47" fill="white" transform="translate(55.5 8.5)"/>
</clipPath>
</defs>
</svg>
